<svg width="230" height="45" viewBox="0 0 230 45" fill="none" xmlns="http://www.w3.org/2000/svg">
<g clip-path="url(#clip0_6469_1577)">
<path d="M229.99 9.36404C229.99 9.02726 229.99 8.68226 229.99 8.34547C229.974 7.59797 229.908 6.85868 229.785 6.12761C229.662 5.39654 229.432 4.6819 229.095 4.01654C228.413 2.68583 227.329 1.59333 225.99 0.911542C225.325 0.574756 224.61 0.344756 223.871 0.213327C223.14 0.090113 222.392 0.0243987 221.653 0.0161844C221.316 0.0161844 220.971 0.00797014 220.634 -0.000244141C220.232 -0.000244141 219.829 -0.000244141 219.435 -0.000244141C219.041 -0.000244141 10.5702 -0.000244141 10.5702 -0.000244141C10.1677 -0.000244141 9.76523 -0.000244141 9.35452 -0.000244141C9.01774 -0.000244141 8.68095 0.00797014 8.33595 0.0161844C7.58845 0.0243987 6.84916 0.090113 6.10988 0.213327C5.37881 0.336542 4.66416 0.574756 3.99881 0.911542C3.33345 1.24833 2.73381 1.6919 2.19988 2.21761C1.67416 2.74333 1.23059 3.35118 0.893806 4.01654C0.55702 4.6819 0.32702 5.39654 0.203806 6.12761C0.0805915 6.85868 0.0148772 7.60618 0.00666295 8.34547C-0.00155134 8.68226 -0.00155134 9.02726 -0.00976562 9.36404V34.9926C-0.00976562 35.3376 -0.00976562 35.6744 0.00666295 36.0112C0.0148772 36.7587 0.0805915 37.498 0.203806 38.229C0.32702 38.9601 0.55702 39.6748 0.893806 40.3401C1.23059 41.0055 1.67416 41.6051 2.19988 42.1308C2.72559 42.6565 3.33345 43.1001 3.99881 43.4369C4.66416 43.7737 5.37059 44.0119 6.10988 44.1351C6.84095 44.2583 7.58845 44.324 8.33595 44.3323C8.68095 44.3323 9.01774 44.3405 9.35452 44.3405H10.5702H219.427H220.626C220.963 44.3405 221.308 44.3405 221.645 44.3323C222.384 44.324 223.131 44.2583 223.862 44.1351C224.602 44.0119 225.308 43.7737 225.982 43.4369C226.647 43.1001 227.255 42.6565 227.772 42.1308C228.298 41.6051 228.742 41.0055 229.087 40.3401C229.423 39.6748 229.653 38.9601 229.777 38.229C229.9 37.498 229.966 36.7505 229.982 36.0112C229.982 35.6662 229.982 35.3294 229.982 34.9926C229.99 34.5901 229.99 34.1876 229.99 33.7769V10.5715C229.99 10.169 229.99 9.76654 229.982 9.36404H229.99ZM228.733 33.6208C228.733 34.0151 228.733 34.4094 228.725 34.7955V35.814C228.709 36.4958 228.651 37.1694 228.536 37.843C228.438 38.4755 228.232 39.0915 227.945 39.6665C227.657 40.2251 227.28 40.7344 226.836 41.178C226.392 41.6298 225.875 42.0076 225.308 42.2951C224.733 42.5826 224.117 42.788 223.485 42.8948C222.811 43.0015 222.129 43.0673 221.439 43.0755C221.119 43.0755 220.782 43.0837 220.462 43.0837H219.279H9.55166C9.21488 43.0837 8.89452 43.0837 8.56595 43.0755C7.88416 43.0673 7.19416 43.0098 6.52059 42.8948C5.88809 42.788 5.28023 42.5826 4.70523 42.2951C4.13845 42.0076 3.62095 41.6298 3.17738 41.1862C2.72559 40.7426 2.34773 40.2251 2.06023 39.6583C1.77273 39.0915 1.56738 38.4755 1.46881 37.843C1.35381 37.1612 1.29631 36.4794 1.28809 35.7894C1.28809 35.5594 1.27166 34.7873 1.27166 34.7873V9.54475C1.27166 9.54475 1.27988 8.78904 1.28809 8.56726C1.29631 7.87726 1.35381 7.19547 1.46881 6.5219C1.57559 5.8894 1.77273 5.27333 2.06023 4.70654C2.34773 4.13976 2.71738 3.62226 3.16916 3.17868C3.62095 2.7269 4.13845 2.34904 4.70523 2.06154C5.27202 1.77404 5.87988 1.5769 6.51238 1.47011C7.19416 1.35511 7.87595 1.29761 8.56595 1.2894L9.55166 1.27297H220.453L221.456 1.2894C222.137 1.2894 222.819 1.35511 223.485 1.47011C224.117 1.5769 224.733 1.78226 225.308 2.06976C226.442 2.65297 227.37 3.58118 227.945 4.71476C228.232 5.28154 228.43 5.8894 228.528 6.51368C228.643 7.19547 228.709 7.88547 228.717 8.57547V9.54475C228.725 9.95547 228.725 10.3415 228.725 10.7358V33.6208H228.733Z" fill="black"/>
<path d="M150.108 21.6689C150.108 17.3728 152.868 14.3746 156.696 14.3746C160.524 14.3746 163.284 17.3728 163.284 21.6689C163.284 25.965 160.524 28.9632 156.696 28.9632C152.868 28.9632 150.108 25.965 150.108 21.6689ZM160.754 21.6689C160.754 18.5968 159.078 16.6007 156.696 16.6007C154.314 16.6007 152.638 18.5886 152.638 21.6689C152.638 24.7493 154.314 26.7371 156.696 26.7371C159.078 26.7371 160.754 24.7493 160.754 21.6689ZM170.381 28.9632C169.042 28.9632 168.057 28.4293 167.408 27.6653V32.2982H165.042V18.3996H167.408V19.5003C168.057 18.7282 169.042 18.2025 170.381 18.2025C173.281 18.2025 174.932 20.6503 174.932 23.5828C174.932 26.5153 173.273 28.9632 170.381 28.9632ZM167.342 23.2871V23.895C167.342 25.8089 168.443 26.8932 169.905 26.8932C171.622 26.8932 172.55 25.5543 172.55 23.5828C172.55 21.6114 171.622 20.2725 169.905 20.2725C168.443 20.2725 167.342 21.3403 167.342 23.2871ZM181.331 28.9632C178.374 28.9632 176.304 26.7782 176.304 23.5828C176.304 20.3875 178.357 18.2025 181.232 18.2025C184.107 18.2025 185.824 20.4696 185.824 23.3118V24.1003H178.571C178.752 25.8746 179.811 26.9589 181.331 26.9589C182.497 26.9589 183.417 26.3675 183.738 25.2996L185.767 26.0718C185.036 27.8871 183.401 28.9714 181.331 28.9714V28.9632ZM181.216 20.1903C179.992 20.1903 179.047 20.9214 178.694 22.3178H183.442C183.426 21.1761 182.711 20.1903 181.216 20.1903ZM187.607 28.7496V18.3996H189.972V19.5003C190.564 18.8103 191.492 18.2025 192.831 18.2025C194.999 18.2025 196.297 19.6975 196.297 21.9318V28.7496H193.932V22.6218C193.932 21.3403 193.422 20.4121 192.116 20.4121C191.048 20.4121 189.964 21.2007 189.964 22.6793V28.7496H187.598H187.607ZM203.23 14.5964H206.089L211.453 28.7496H208.906L207.682 25.5132H201.571L200.372 28.7496H197.866L203.23 14.5964ZM204.61 17.3975L202.401 23.3118H206.853L204.602 17.3975H204.61ZM215.511 14.5964V28.7496H212.989V14.5964H215.511Z" fill="black"/>
<path d="M144.325 19.7879C144.621 18.9008 144.719 17.9644 144.629 17.0362C144.538 16.1079 144.235 15.2126 143.766 14.4076C143.068 13.1919 142 12.2308 140.719 11.6558C139.437 11.0808 138.008 10.9329 136.636 11.2287C136.02 10.5304 135.256 9.97187 134.402 9.59401C133.548 9.21615 132.628 9.01901 131.691 9.02722C130.287 9.02722 128.923 9.46258 127.781 10.2922C126.648 11.1137 125.802 12.2801 125.366 13.6108C124.455 13.7997 123.592 14.1776 122.836 14.7279C122.081 15.2783 121.448 15.9765 120.988 16.7897C120.282 18.0054 119.986 19.4101 120.134 20.8065C120.282 22.2029 120.865 23.5172 121.81 24.5604C121.514 25.4476 121.415 26.384 121.506 27.3122C121.604 28.2404 121.9 29.1358 122.368 29.9408C123.066 31.1565 124.134 32.1176 125.416 32.6926C126.697 33.2676 128.126 33.4154 129.498 33.1197C130.114 33.8179 130.878 34.3765 131.732 34.7544C132.587 35.1322 133.507 35.3294 134.443 35.3212C135.848 35.3212 137.22 34.8858 138.353 34.0562C139.487 33.2347 140.333 32.0683 140.768 30.7294C141.68 30.5404 142.542 30.1626 143.298 29.6122C144.054 29.0619 144.678 28.3637 145.146 27.5504C145.853 26.3347 146.148 24.9301 146.001 23.5337C145.853 22.1372 145.27 20.8229 144.325 19.7879ZM134.501 33.5962C133.195 33.5962 132.176 33.1937 131.297 32.4544C131.338 32.4297 131.404 32.3969 131.453 32.364L136.686 29.3412C136.817 29.2672 136.924 29.1604 136.998 29.029C137.072 28.8976 137.113 28.7497 137.113 28.6019V21.2254L139.322 22.5069C139.322 22.5069 139.347 22.5233 139.355 22.5315C139.355 22.5397 139.363 22.5562 139.372 22.5644V28.6758C139.372 31.444 137.063 33.6044 134.501 33.6044V33.5962ZM123.863 29.0783C123.288 28.0844 123.075 26.9097 123.28 25.7762C123.321 25.8008 123.387 25.8419 123.436 25.8665L128.668 28.8894C128.8 28.9633 128.948 29.0044 129.096 29.0044C129.243 29.0044 129.391 28.9633 129.523 28.8894L135.913 25.2012V27.7558C135.913 27.7558 135.913 27.7804 135.913 27.7969C135.913 27.8051 135.897 27.8215 135.889 27.8297L130.599 30.8854C129.465 31.5344 128.126 31.7151 126.861 31.3783C125.596 31.0415 124.52 30.2119 123.871 29.0865L123.863 29.0783ZM122.483 17.6522C123.058 16.6501 123.97 15.8862 125.046 15.4919V21.7183C125.046 21.8662 125.087 22.014 125.161 22.1454C125.235 22.2769 125.342 22.3837 125.473 22.4576L131.864 26.1458L129.654 27.4272C129.654 27.4272 129.63 27.4354 129.621 27.4437C129.605 27.4437 129.597 27.4437 129.58 27.4437L124.29 24.3879C123.157 23.7308 122.335 22.6547 121.998 21.3979C121.662 20.1329 121.834 18.794 122.483 17.6604V17.6522ZM140.661 21.8826L134.271 18.1944L136.48 16.9212C136.48 16.9212 136.505 16.9129 136.513 16.9047H136.554L141.844 19.9604C142.657 20.4287 143.315 21.1187 143.75 21.9483C144.185 22.7779 144.366 23.7144 144.292 24.6426C144.21 25.579 143.865 26.4662 143.298 27.2054C142.731 27.9529 141.967 28.5197 141.088 28.8401V22.6137C141.088 22.4658 141.047 22.3179 140.973 22.1865C140.9 22.0551 140.793 21.9483 140.661 21.8744V21.8826ZM142.863 18.564C142.863 18.564 142.756 18.4983 142.707 18.4737L137.474 15.4508C137.343 15.3769 137.195 15.3358 137.047 15.3358C136.899 15.3358 136.743 15.3769 136.62 15.4508L130.229 19.139V16.5844C130.229 16.5844 130.229 16.5597 130.229 16.5433C130.229 16.5351 130.246 16.5187 130.254 16.5104L135.544 13.4547C136.357 12.9865 137.277 12.7565 138.213 12.7976C139.15 12.8387 140.053 13.1426 140.817 13.6765C141.581 14.2104 142.181 14.9579 142.542 15.8204C142.904 16.6829 143.011 17.6358 142.855 18.5558L142.863 18.564ZM129.022 23.1229L126.812 21.8415C126.812 21.8415 126.787 21.8251 126.779 21.8169C126.779 21.8087 126.771 21.7922 126.763 21.784V15.6726C126.763 14.7362 127.034 13.8244 127.535 13.0276C128.036 12.239 128.751 11.6065 129.605 11.2122C130.451 10.8179 131.396 10.6701 132.324 10.7851C133.252 10.9083 134.131 11.2862 134.846 11.8858C134.805 11.9104 134.739 11.9433 134.69 11.9762L129.457 14.999C129.326 15.0729 129.219 15.1797 129.145 15.3112C129.071 15.4426 129.03 15.5904 129.03 15.7383V23.1147L129.022 23.1229ZM130.221 20.5354L133.063 18.8926L135.905 20.5354V23.8212L133.063 25.464L130.221 23.8212V20.5354Z" fill="black"/>
<path d="M17.0023 23.2708V28.7497H14.4805V14.5965H20.1401C23.2944 14.5965 25.2658 16.075 25.2658 18.9336C25.2658 21.7922 23.2944 23.2708 20.1401 23.2708H17.0023ZM17.0023 21.1022H20.0005C21.8158 21.1022 22.7769 20.3136 22.7769 18.9336C22.7769 17.5536 21.8076 16.765 20.0005 16.765H17.0023V21.1022ZM35.5583 23.5829C35.5583 26.7947 33.4883 28.9633 30.5723 28.9633C27.6562 28.9633 25.5862 26.7947 25.5862 23.5829C25.5862 20.3711 27.6562 18.2025 30.5723 18.2025C33.4883 18.2025 35.5583 20.3711 35.5583 23.5829ZM27.9683 23.5829C27.9683 25.694 28.9705 26.9754 30.5723 26.9754C32.174 26.9754 33.1762 25.694 33.1762 23.5829C33.1762 21.4718 32.174 20.1904 30.5723 20.1904C28.9705 20.1904 27.9683 21.4718 27.9683 23.5829ZM42.0394 18.3997H43.9944L45.8508 25.2586L47.6826 18.3997H50.0319L46.9187 28.7497H44.8651L42.9758 21.9647L41.0865 28.7497H39.033L35.9198 18.3997H38.343L40.2158 25.2586L42.0476 18.3997H42.0394ZM55.3876 28.9633C52.4305 28.9633 50.3605 26.7783 50.3605 23.5829C50.3605 20.3875 52.414 18.2025 55.289 18.2025C58.164 18.2025 59.8808 20.4697 59.8808 23.3118V24.1004H52.6276C52.8083 25.8747 53.868 26.959 55.3876 26.959C56.5541 26.959 57.4741 26.3675 57.7944 25.2997L59.8233 26.0718C59.0923 27.8872 57.4576 28.9715 55.3876 28.9715V28.9633ZM55.2726 20.1904C54.0487 20.1904 53.104 20.9215 52.7508 22.3179H57.4987C57.4823 21.1761 56.7676 20.1904 55.2726 20.1904ZM67.438 18.375V20.7408C67.1423 20.6997 66.9041 20.6833 66.5673 20.6833C65.0723 20.6833 63.9223 21.6525 63.9223 23.3036V28.7415H61.5566V18.3915H63.9223V19.9275C64.3741 18.9583 65.4419 18.334 66.7644 18.334C67.0437 18.334 67.2573 18.3504 67.438 18.375ZM72.8512 28.9633C69.8941 28.9633 67.8241 26.7783 67.8241 23.5829C67.8241 20.3875 69.8776 18.2025 72.7526 18.2025C75.6276 18.2025 77.3444 20.4697 77.3444 23.3118V24.1004H70.0912C70.2719 25.8747 71.3316 26.959 72.8512 26.959C74.0176 26.959 74.9376 26.3675 75.258 25.2997L77.2869 26.0718C76.5558 27.8872 74.9212 28.9715 72.8512 28.9715V28.9633ZM72.7362 20.1904C71.5123 20.1904 70.5676 20.9215 70.2144 22.3179H74.9623C74.9458 21.1761 74.2312 20.1904 72.7362 20.1904ZM82.9301 28.9633C80.0305 28.9633 78.3794 26.5154 78.3794 23.5829C78.3794 20.6504 80.0387 18.2025 82.9301 18.2025C84.2691 18.2025 85.2548 18.7365 85.9037 19.5004V14.5883H88.2694V28.7415H85.9037V27.6572C85.2548 28.4293 84.2691 28.955 82.9301 28.955V28.9633ZM85.9694 23.2872C85.9694 21.3322 84.8687 20.2725 83.4066 20.2725C81.6898 20.2725 80.7616 21.6115 80.7616 23.5829C80.7616 25.5543 81.6898 26.8933 83.4066 26.8933C84.8687 26.8933 85.9694 25.809 85.9694 23.895V23.2872ZM100.254 28.9633C98.9151 28.9633 97.9294 28.4293 97.2805 27.6654V28.7497H94.9148V14.5965H97.2805V19.5086C97.9294 18.7365 98.9151 18.2108 100.254 18.2108C103.154 18.2108 104.805 20.6586 104.805 23.5911C104.805 26.5236 103.145 28.9715 100.254 28.9715V28.9633ZM97.2148 23.2872V23.895C97.2148 25.809 98.3155 26.8933 99.7776 26.8933C101.494 26.8933 102.423 25.5543 102.423 23.5829C102.423 21.6115 101.494 20.2725 99.7776 20.2725C98.3155 20.2725 97.2148 21.3404 97.2148 23.2872ZM110.834 29.7108C110.243 31.2879 109.339 32.3722 107.187 32.3722C106.694 32.3722 106.554 32.3558 106.218 32.3147V30.3268C106.53 30.3679 106.71 30.3843 107.006 30.3843C107.795 30.3843 108.173 30.1708 108.501 29.3411L108.895 28.3718L105.133 18.3997H107.614L110.16 25.6529L112.641 18.3997H115.089L110.834 29.719V29.7108Z" fill="black"/>
</g>
<defs>
<clipPath id="clip0_6469_1577">
<rect width="230" height="44.3571" fill="white"/>
</clipPath>
</defs>
</svg>
